<?xml version="1.0" encoding="iso-8859-1"?>
<!-- Generator: Adobe Illustrator 19.0.0, SVG Export Plug-In . SVG Version: 6.00 Build 0)  -->
<svg version="1.1" id="Capa_1" xmlns="http://www.w3.org/2000/svg" xmlns:xlink="http://www.w3.org/1999/xlink" x="0px" y="0px"
	 viewBox="0 0 384.009 384.009" style="enable-background:new 0 0 384.009 384.009;" xml:space="preserve">
<path style="fill:#4DD0E1;" d="M349.44,238.485l18.56,93.52c0,0-44.96-22.24-88.56-39.2h-0.08c-11.6,4.72-23.92,8.48-36.96,11.04
	c-13.52,2.72-43.76,4.16-58.4,4.16c-92.8,0-168-57.28-168-128s83.2-128,176-128s176,57.28,176,128
	C368,201.124,361.28,220.964,349.44,238.485z"/>
<g>
	<path style="fill:#012E52;" d="M192,36.005c-104.072,0-192,65.944-192,144c0,79.4,82.544,144,184,144
		c13.704,0,45.832-1.312,61.48-4.464c11.496-2.256,22.864-5.472,33.888-9.568c40.576,16.168,81.12,36.168,81.536,36.376
		c2.256,1.112,4.68,1.656,7.096,1.656c3.456,0,6.888-1.12,9.736-3.304c4.832-3.704,7.152-9.832,5.968-15.816l-17.312-87.216
		C377.928,222.516,384,201.34,384,180.005C384,101.949,296.072,36.005,192,36.005z M333.744,241.597l12.368,62.328
		c-16.792-7.72-38.896-17.48-60.872-26.032c-1.848-0.72-3.896-1.088-5.88-1.088c-2.064,0-4.112,0.4-6.032,1.176
		c-10.984,4.472-22.424,7.888-34.088,10.168c-11.672,2.36-40.512,3.856-55.24,3.856c-83.816,0-152-50.24-152-112
		c0-59.664,74.768-112,160-112s160,52.336,160,112c0,17.336-5.32,33.992-15.816,49.52
		C333.792,233.061,332.92,237.412,333.744,241.597z"/>
	<path style="fill:#012E52;" d="M240,132.005H112c-8.832,0-16,7.168-16,16s7.168,16,16,16h128c8.832,0,16-7.168,16-16
		S248.832,132.005,240,132.005z"/>
	<path style="fill:#012E52;" d="M208,196.005h-96c-8.832,0-16,7.168-16,16s7.168,16,16,16h96c8.832,0,16-7.168,16-16
		S216.832,196.005,208,196.005z"/>
</g>
<g>
</g>
<g>
</g>
<g>
</g>
<g>
</g>
<g>
</g>
<g>
</g>
<g>
</g>
<g>
</g>
<g>
</g>
<g>
</g>
<g>
</g>
<g>
</g>
<g>
</g>
<g>
</g>
<g>
</g>
</svg>
